<svg xmlns="http://www.w3.org/2000/svg" viewBox="0 0 96 114" role="img" aria-label="Wappen Zahnmedizin">
  <title>Wappen Zahnmedizin</title>
  <path d="M48 5 L88 19 V57 C88 83 68 101 48 109 C28 101 8 83 8 57 V19 Z"
        fill="none" stroke="#2A6099" stroke-width="3.2" stroke-linejoin="round"/>
  <path d="M48 13 L81 24 V57 C81 78 64 93 48 100 C32 93 15 78 15 57 V24 Z"
        fill="none" stroke="#C9A45A" stroke-width="1.4" stroke-linejoin="round"/>
  <path d="M48 41c-5-5-16-6-19 3-2 8 1 16 3 22 1 4 3 8 6 8 4 0 4-9 10-9s6 9 10 9c3 0 5-4 6-8 2-6 5-14 3-22-3-9-14-8-19-3z"
        fill="none" stroke="#4A7AA8" stroke-width="3" stroke-linejoin="round"/>
  <path d="M40 50c3-2 8-2 11 0" fill="none" stroke="#C9A45A" stroke-width="1.8" stroke-linecap="round"/>
</svg>
